<svg width="745" height="100" viewBox="0 0 745 100" fill="none" xmlns="http://www.w3.org/2000/svg">
<path d="M14.4517 1C235.369 5.95839 457.497 6.06013 739.929 4.04543M7.78842 1.54288C170.609 5.02729 335.158 3.9839 739.902 3.67012M742.112 1.35293C744.208 36.1986 745.874 79.1944 739.576 94.8532M734.449 3.43557C732.968 24.2636 737.217 47.9453 734.89 95.8345M739.259 97.4961C483.631 89.8873 238.602 94.0507 11.3331 95.7147M735.33 96.9335C504.997 100.026 262.097 99.9248 5.50721 94.7278M12.4248 94.3922C-2.4012 68.0709 8.03613 43.7055 1 1.83724M3.20732 95.1848C8.1733 57.7325 16.2822 21.9665 11.1203 1.64519" stroke="#2E3192" stroke-width="1.5" stroke-linecap="round"/>
</svg>
